#!OML:ASF E:/inclinewalkrobotboard/Project1/Captureday1/Session1/subject1.ASF
:FULLY-SPECIFIED
:DEGREES
188
root 0 0 0 -5.981751050436769 -25.466146160343854 5.058782086008557
lowerback 11.202014655307543 -0.5648523015140765 -5.751882164394809
upperback 5.488716731435257 -1.3949277350685485 -1.2328621045342274
thorax -0.3783816358708685 -0.7253224239613953 2.0514130387106846
lowerneck 4.272700311229917 -3.457711717128795 -10.221934473172107
upperneck 11.403027076293332 -5.4621112305184205 12.71825480389156
head 3.2954876443838774 -2.8024843717070893 5.566307150338659
rclavicle -4.815239293860406E-15 1.2308504988999325E-15
rhumerus 35.363164058224775 -23.190447225495983 -47.75437890379447
rradius 45.89567160247839
rwrist 23.53453105699462
rhand -27.787491654828457 4.8929660242948145
rfingers 7.125020000000022
rthumb -1.1330884842239808 -25.11689257511839
lclavicle -7.362154900573068E-16 2.4497474844186195E-16
lhumerus 21.586607879113988 -30.88437811913095 67.31047906015621
lradius 125.40330329360089
lwrist 55.42158111365873
lhand -28.085310634385156 43.130301362528655
lfingers 7.149703152919051
lthumb -1.2949449933830444 52.898779304590725
rfemur -38.82876301444996 6.055830043577359 4.278058876452652
rtibia 57.129877256823825
rfoot -4.507418514140446 -9.674574111793826
rtoes -6.718978768107409
lfemur -4.804567466464508 -5.204412997122039 -14.871207627803633
ltibia 25.349769332691366
lfoot -17.12265182751926 14.347845267013753
ltoes -1.6054069137697362
189
root 0 0 0 -5.989381242977655 -25.453514071307076 5.038176868418891
lowerback 11.18576011652175 -0.564512646245009 -5.751147585985545
upperback 5.478515128157453 -1.393691026279318 -1.2323950866198374
thorax -0.38026854872937 -0.7246508312074784 2.0515546606611896
lowerneck 4.255866407945652 -3.4750246560755764 -10.229697965215248
upperneck 11.39895427208172 -5.486739254534905 12.73685669643168
head 3.2990959617800852 -2.813455578424429 5.571452364020475
rclavicle -4.803849326991535E-15 1.2124998767625E-15
rhumerus 35.03350068421229 -23.136666059230006 -47.87546536362448
rradius 45.366457856868585
rwrist 23.84595166457928
rhand -27.539622419199716 5.10849810458103
rfingers 7.125020000000023
rthumb -0.8937898219883618 -24.900338428650677
lclavicle -7.355198695748685E-16 2.442814545748808E-16
lhumerus 21.603808872164013 -30.88496285298687 67.30227765621926
lradius 125.42519630934964
lwrist 55.44257518755257
lhand -28.093277525513813 43.13549897477666
lfingers 7.149723955264374
lthumb -1.302513561207384 52.89814600354704
rfemur -38.84711662422981 6.030785390773596 4.278357062610192
rtibia 57.17482033400962
rfoot -4.495545730527117 -9.67827583763476
rtoes -6.710801921340581
lfemur -4.735367537527615 -5.19434765904084 -14.893708845452881
ltibia 25.290828436632637
lfoot -17.196029148137576 14.417118971688382
ltoes -1.5788592664009373
190
root 0 0 0 -6.009350761825082 -25.423145382703638 4.988166841729405
lowerback 11.142041924663246 -0.5618337503864876 -5.745801199904127
upperback 5.45235377700236 -1.387845806915952 -1.2324228851011378
thorax -0.38410613473842115 -0.7216206670091259 2.0484910210529357
lowerneck 4.212185774455449 -3.5101384498716897 -10.243273374544836
upperneck 11.38986600902925 -5.536592752289191 12.771507951085036
head 3.3080216508266456 -2.835308049872873 5.580410058030399
rclavicle -4.7833436321529366E-15 1.17881158745726E-15
rhumerus 34.38956806773711 -22.99349616234473 -48.12598116856885
rradius 44.404650991165234
rwrist 24.404560280339396
rhand -27.07634903003196 5.498535703498801
rfingers 7.125020000000024
rthumb -0.44639391202749135 -24.507919152914184
lclavicle -7.483718002271746E-16 2.4906836768730824E-16
lhumerus 21.583086846890655 -30.896302783006597 67.31746583328288
lradius 125.41257543579243
lwrist 55.425027392226696
lhand -28.08167527519421 43.132605124913766
lfingers 7.149727220075706
lthumb -1.2914798979347921 52.90128181812463
rfemur -38.68784461647549 6.087525238692491 4.345001811756026
rtibia 57.00848887930785
rfoot -4.561922197071586 -9.691391501034962
rtoes -6.70095642173106
lfemur -4.652267763760802 -5.183366082270398 -14.921840777190123
ltibia 25.221706439736487
lfoot -17.277044424766004 14.4941086493121
ltoes -1.5453096468181595
191
root 0 0 0 -6.033238249263343 -25.38925019271629 4.966819933871122
lowerback 11.105731433004173 -0.5675515575560435 -5.746993197281883
upperback 5.432560853713529 -1.3937864886676123 -1.2281129754175568
thorax -0.3847030233956814 -0.7244141765405026 2.0547617579882975
lowerneck 4.180364684503367 -3.5231526081164786 -10.249768492056276
upperneck 11.418622930688207 -5.556135699667889 12.780037332438546
head 3.3233058165659077 -2.843809443769519 5.581779795151291
rclavicle -4.775621587486025E-15 1.1629735584421778E-15
rhumerus 34.096280095465254 -22.954552907073346 -48.2335862639588
rradius 43.95053175871019
rwrist 24.67083814801712
rhand -26.865077008351257 5.685969380048145
rfingers 7.125020000000025
rthumb -0.24284885000213663 -24.31889648326245
lclavicle -7.617005946456421E-16 2.5290754187756355E-16
lhumerus 21.595832334842807 -30.891887619072918 67.31025934207022
lradius 125.42916178295125
lwrist 55.44013952631018
lhand -28.08821071707497 43.13565949939229
lfingers 7.149770779837556
lthumb -1.2973871151906415 52.901801554590946
rfemur -38.74340581308839 6.0327532929033545 4.3381248634616725
rtibia 57.113121313420756
rfoot -4.50998693063671 -9.692626308281554
rtoes -6.672329032219163
lfemur -4.574261268231497 -5.198911290132566 -14.93889789009826
ltibia 25.120061574221044
lfoot -17.322448137069838 14.557557995387938
ltoes -1.510195728569676
192
root 0 0 0 -6.039501664045737 -25.322743509043256 4.938573524965552
lowerback 11.081671343064837 -0.569637277578178 -5.748662182862068
upperback 5.417984577126015 -1.3955717475383957 -1.2255485966035469
thorax -0.3869377311087421 -0.7251556850389058 2.058829937302381
lowerneck 4.156163998557412 -3.5440752135148705 -10.259205981569433
upperneck 11.441524890638727 -5.5860781094136565 12.797805698167865
head 3.3367655320383776 -2.857235237170736 5.586200216983711
rclavicle -4.760384062725174E-15 1.1423875388793993E-15
rhumerus 33.69122784632438 -22.86370897213214 -48.39219235972618
rradius 43.36013313512922
rwrist 25.01745375842253
rhand -26.57957751108404 5.927960895266621
rfingers 7.125020000000026
rthumb 0.032513824219967624 -24.075207183314205
lclavicle -7.433495291795831E-16 2.4528611615962405E-16
lhumerus 21.614537304474172 -30.905160951673306 67.30650877470973
lradius 125.47395826927158
lwrist 55.47580024482681
lhand -28.09846802868904 43.145248435564184
lfingers 7.149776183650905
lthumb -1.3072303936025662 52.90155561007613
rfemur -38.813946438644436 5.9721146867008486 4.324241225201881
rtibia 57.236346685815505
rfoot -4.465029169808017 -9.692739548325816
rtoes -6.653904652884174
lfemur -4.528664262801517 -5.192002015552502 -14.952494106517541
ltibia 25.080337432772957
lfoot -17.376150779500467 14.607328702762977
ltoes -1.4952238503005333
